<mxfile host="app.diagrams.net" modified="2023-06-20T21:58:38.657Z" agent="Mozilla/5.0 (Windows NT 10.0; Win64; x64) AppleWebKit/537.36 (KHTML, like Gecko) Chrome/114.0.0.0 Safari/537.36" etag="WsQiz0yxFNiFAgqkYlSB" version="21.5.0" type="github">
  <diagram id="C5RBs43oDa-KdzZeNtuy" name="Page-1">
    <mxGraphModel dx="1434" dy="764" grid="1" gridSize="10" guides="1" tooltips="1" connect="1" arrows="1" fold="1" page="1" pageScale="1" pageWidth="827" pageHeight="1169" math="0" shadow="0">
      <root>
        <mxCell id="WIyWlLk6GJQsqaUBKTNV-0" />
        <mxCell id="WIyWlLk6GJQsqaUBKTNV-1" parent="WIyWlLk6GJQsqaUBKTNV-0" />
        <mxCell id="ytRLz0EtF9h6s9q6uNTN-12" value="Level selection" style="rhombus;whiteSpace=wrap;html=1;" parent="WIyWlLk6GJQsqaUBKTNV-1" vertex="1">
          <mxGeometry x="359" y="430" width="80" height="80" as="geometry" />
        </mxCell>
        <mxCell id="ytRLz0EtF9h6s9q6uNTN-19" value="" style="endArrow=classic;html=1;rounded=0;entryX=0.5;entryY=0;entryDx=0;entryDy=0;exitX=0;exitY=1;exitDx=0;exitDy=0;" parent="WIyWlLk6GJQsqaUBKTNV-1" source="ytRLz0EtF9h6s9q6uNTN-12" edge="1">
          <mxGeometry width="50" height="50" relative="1" as="geometry">
            <mxPoint x="579" y="290" as="sourcePoint" />
            <mxPoint x="299" y="640" as="targetPoint" />
          </mxGeometry>
        </mxCell>
        <mxCell id="ytRLz0EtF9h6s9q6uNTN-27" value="Medium" style="edgeLabel;html=1;align=center;verticalAlign=middle;resizable=0;points=[];" parent="ytRLz0EtF9h6s9q6uNTN-19" vertex="1" connectable="0">
          <mxGeometry x="0.1467" y="2" relative="1" as="geometry">
            <mxPoint as="offset" />
          </mxGeometry>
        </mxCell>
        <mxCell id="ytRLz0EtF9h6s9q6uNTN-20" value="Pizza" style="endArrow=classic;html=1;rounded=0;exitX=1;exitY=0.5;exitDx=0;exitDy=0;entryX=0;entryY=0;entryDx=0;entryDy=0;" parent="WIyWlLk6GJQsqaUBKTNV-1" source="ytRLz0EtF9h6s9q6uNTN-12" edge="1">
          <mxGeometry width="50" height="50" relative="1" as="geometry">
            <mxPoint x="579" y="290" as="sourcePoint" />
            <mxPoint x="543.5025253169324" y="473.18019484659953" as="targetPoint" />
          </mxGeometry>
        </mxCell>
        <mxCell id="ytRLz0EtF9h6s9q6uNTN-21" value="" style="endArrow=classic;html=1;rounded=0;exitX=0;exitY=0.5;exitDx=0;exitDy=0;entryX=1;entryY=0;entryDx=0;entryDy=0;" parent="WIyWlLk6GJQsqaUBKTNV-1" source="ytRLz0EtF9h6s9q6uNTN-12" target="YSV1aVPESq65o2m4jmxX-12" edge="1">
          <mxGeometry width="50" height="50" relative="1" as="geometry">
            <mxPoint x="579" y="290" as="sourcePoint" />
            <mxPoint x="229" y="465" as="targetPoint" />
          </mxGeometry>
        </mxCell>
        <mxCell id="ytRLz0EtF9h6s9q6uNTN-26" value="Easy" style="edgeLabel;html=1;align=center;verticalAlign=middle;resizable=0;points=[];" parent="ytRLz0EtF9h6s9q6uNTN-21" vertex="1" connectable="0">
          <mxGeometry x="-0.4727" relative="1" as="geometry">
            <mxPoint as="offset" />
          </mxGeometry>
        </mxCell>
        <mxCell id="ytRLz0EtF9h6s9q6uNTN-24" value="" style="endArrow=classic;html=1;rounded=0;exitX=1;exitY=1;exitDx=0;exitDy=0;entryX=0.5;entryY=0;entryDx=0;entryDy=0;" parent="WIyWlLk6GJQsqaUBKTNV-1" source="ytRLz0EtF9h6s9q6uNTN-12" edge="1">
          <mxGeometry width="50" height="50" relative="1" as="geometry">
            <mxPoint x="579" y="490" as="sourcePoint" />
            <mxPoint x="499" y="640" as="targetPoint" />
          </mxGeometry>
        </mxCell>
        <mxCell id="ytRLz0EtF9h6s9q6uNTN-25" value="Hard" style="edgeLabel;html=1;align=center;verticalAlign=middle;resizable=0;points=[];" parent="ytRLz0EtF9h6s9q6uNTN-24" vertex="1" connectable="0">
          <mxGeometry x="0.2042" y="-4" relative="1" as="geometry">
            <mxPoint x="1" as="offset" />
          </mxGeometry>
        </mxCell>
        <mxCell id="YSV1aVPESq65o2m4jmxX-10" style="edgeStyle=orthogonalEdgeStyle;rounded=0;orthogonalLoop=1;jettySize=auto;html=1;entryX=0.5;entryY=0.233;entryDx=0;entryDy=0;entryPerimeter=0;" parent="WIyWlLk6GJQsqaUBKTNV-1" source="YSV1aVPESq65o2m4jmxX-1" target="YSV1aVPESq65o2m4jmxX-4" edge="1">
          <mxGeometry relative="1" as="geometry" />
        </mxCell>
        <mxCell id="YSV1aVPESq65o2m4jmxX-1" value="Program Start" style="strokeWidth=2;html=1;shape=mxgraph.flowchart.terminator;whiteSpace=wrap;" parent="WIyWlLk6GJQsqaUBKTNV-1" vertex="1">
          <mxGeometry x="349" y="80" width="100" height="60" as="geometry" />
        </mxCell>
        <mxCell id="YSV1aVPESq65o2m4jmxX-8" style="edgeStyle=orthogonalEdgeStyle;rounded=0;orthogonalLoop=1;jettySize=auto;html=1;" parent="WIyWlLk6GJQsqaUBKTNV-1" source="YSV1aVPESq65o2m4jmxX-4" target="YSV1aVPESq65o2m4jmxX-7" edge="1">
          <mxGeometry relative="1" as="geometry" />
        </mxCell>
        <mxCell id="YSV1aVPESq65o2m4jmxX-4" value="Ask player name" style="html=1;strokeWidth=2;shape=manualInput;whiteSpace=wrap;rounded=1;size=26;arcSize=11;" parent="WIyWlLk6GJQsqaUBKTNV-1" vertex="1">
          <mxGeometry x="349" y="180" width="100" height="60" as="geometry" />
        </mxCell>
        <mxCell id="YSV1aVPESq65o2m4jmxX-11" style="edgeStyle=orthogonalEdgeStyle;rounded=0;orthogonalLoop=1;jettySize=auto;html=1;entryX=0.5;entryY=0;entryDx=0;entryDy=0;" parent="WIyWlLk6GJQsqaUBKTNV-1" source="YSV1aVPESq65o2m4jmxX-7" target="ytRLz0EtF9h6s9q6uNTN-12" edge="1">
          <mxGeometry relative="1" as="geometry" />
        </mxCell>
        <mxCell id="YSV1aVPESq65o2m4jmxX-7" value="Welcome using player name" style="rounded=1;whiteSpace=wrap;html=1;absoluteArcSize=1;arcSize=14;strokeWidth=2;" parent="WIyWlLk6GJQsqaUBKTNV-1" vertex="1">
          <mxGeometry x="349" y="270" width="100" height="100" as="geometry" />
        </mxCell>
        <mxCell id="YSV1aVPESq65o2m4jmxX-22" style="edgeStyle=orthogonalEdgeStyle;rounded=0;orthogonalLoop=1;jettySize=auto;html=1;entryX=0;entryY=0.5;entryDx=0;entryDy=0;entryPerimeter=0;" parent="WIyWlLk6GJQsqaUBKTNV-1" source="YSV1aVPESq65o2m4jmxX-12" target="YSV1aVPESq65o2m4jmxX-18" edge="1">
          <mxGeometry relative="1" as="geometry">
            <Array as="points">
              <mxPoint x="229" y="880" />
            </Array>
          </mxGeometry>
        </mxCell>
        <mxCell id="YSV1aVPESq65o2m4jmxX-12" value="Set highest random number to 20&lt;br style=&quot;border-color: var(--border-color);&quot;&gt;Set lives to 10" style="rounded=1;whiteSpace=wrap;html=1;absoluteArcSize=1;arcSize=14;strokeWidth=2;" parent="WIyWlLk6GJQsqaUBKTNV-1" vertex="1">
          <mxGeometry x="179" y="470" width="100" height="100" as="geometry" />
        </mxCell>
        <mxCell id="YSV1aVPESq65o2m4jmxX-21" style="edgeStyle=orthogonalEdgeStyle;rounded=0;orthogonalLoop=1;jettySize=auto;html=1;entryX=0.6;entryY=0;entryDx=0;entryDy=0;entryPerimeter=0;" parent="WIyWlLk6GJQsqaUBKTNV-1" source="YSV1aVPESq65o2m4jmxX-13" target="YSV1aVPESq65o2m4jmxX-18" edge="1">
          <mxGeometry relative="1" as="geometry">
            <mxPoint x="419" y="840" as="targetPoint" />
            <Array as="points">
              <mxPoint x="419" y="690" />
            </Array>
          </mxGeometry>
        </mxCell>
        <mxCell id="YSV1aVPESq65o2m4jmxX-13" value="Set highest random number to 100&lt;br style=&quot;border-color: var(--border-color);&quot;&gt;Set lives to 5" style="rounded=1;whiteSpace=wrap;html=1;absoluteArcSize=1;arcSize=14;strokeWidth=2;" parent="WIyWlLk6GJQsqaUBKTNV-1" vertex="1">
          <mxGeometry x="449" y="640" width="100" height="100" as="geometry" />
        </mxCell>
        <mxCell id="YSV1aVPESq65o2m4jmxX-19" style="edgeStyle=orthogonalEdgeStyle;rounded=0;orthogonalLoop=1;jettySize=auto;html=1;" parent="WIyWlLk6GJQsqaUBKTNV-1" source="YSV1aVPESq65o2m4jmxX-14" target="YSV1aVPESq65o2m4jmxX-18" edge="1">
          <mxGeometry relative="1" as="geometry">
            <Array as="points">
              <mxPoint x="399" y="690" />
            </Array>
          </mxGeometry>
        </mxCell>
        <mxCell id="YSV1aVPESq65o2m4jmxX-14" value="Set highest random number to 50&lt;br style=&quot;border-color: var(--border-color);&quot;&gt;Set lives to 5" style="rounded=1;whiteSpace=wrap;html=1;absoluteArcSize=1;arcSize=14;strokeWidth=2;" parent="WIyWlLk6GJQsqaUBKTNV-1" vertex="1">
          <mxGeometry x="249" y="640" width="100" height="100" as="geometry" />
        </mxCell>
        <mxCell id="YSV1aVPESq65o2m4jmxX-23" style="edgeStyle=orthogonalEdgeStyle;rounded=0;orthogonalLoop=1;jettySize=auto;html=1;entryX=1;entryY=0.5;entryDx=0;entryDy=0;entryPerimeter=0;" parent="WIyWlLk6GJQsqaUBKTNV-1" source="YSV1aVPESq65o2m4jmxX-15" target="YSV1aVPESq65o2m4jmxX-18" edge="1">
          <mxGeometry relative="1" as="geometry">
            <Array as="points">
              <mxPoint x="599" y="880" />
            </Array>
          </mxGeometry>
        </mxCell>
        <mxCell id="YSV1aVPESq65o2m4jmxX-15" value="Set highest number to 10000&lt;br style=&quot;border-color: var(--border-color);&quot;&gt;Set lives to 1" style="rounded=1;whiteSpace=wrap;html=1;absoluteArcSize=1;arcSize=14;strokeWidth=2;" parent="WIyWlLk6GJQsqaUBKTNV-1" vertex="1">
          <mxGeometry x="549" y="470" width="100" height="100" as="geometry" />
        </mxCell>
        <mxCell id="YSV1aVPESq65o2m4jmxX-29" style="edgeStyle=orthogonalEdgeStyle;rounded=0;orthogonalLoop=1;jettySize=auto;html=1;entryX=0.4;entryY=-0.02;entryDx=0;entryDy=0;entryPerimeter=0;" parent="WIyWlLk6GJQsqaUBKTNV-1" source="YSV1aVPESq65o2m4jmxX-18" target="YSV1aVPESq65o2m4jmxX-27" edge="1">
          <mxGeometry relative="1" as="geometry" />
        </mxCell>
        <mxCell id="YSV1aVPESq65o2m4jmxX-18" value="You selected &quot;users choice&quot;" style="strokeWidth=2;html=1;shape=mxgraph.flowchart.display;whiteSpace=wrap;" parent="WIyWlLk6GJQsqaUBKTNV-1" vertex="1">
          <mxGeometry x="359" y="850" width="100" height="60" as="geometry" />
        </mxCell>
        <mxCell id="YSV1aVPESq65o2m4jmxX-31" style="edgeStyle=orthogonalEdgeStyle;rounded=0;orthogonalLoop=1;jettySize=auto;html=1;entryX=0.49;entryY=0.15;entryDx=0;entryDy=0;entryPerimeter=0;" parent="WIyWlLk6GJQsqaUBKTNV-1" source="YSV1aVPESq65o2m4jmxX-27" target="YSV1aVPESq65o2m4jmxX-30" edge="1">
          <mxGeometry relative="1" as="geometry" />
        </mxCell>
        <mxCell id="YSV1aVPESq65o2m4jmxX-27" value="Choose random number from specification.&amp;nbsp;" style="rounded=1;whiteSpace=wrap;html=1;absoluteArcSize=1;arcSize=14;strokeWidth=2;" parent="WIyWlLk6GJQsqaUBKTNV-1" vertex="1">
          <mxGeometry x="369" y="990" width="100" height="100" as="geometry" />
        </mxCell>
        <mxCell id="YSV1aVPESq65o2m4jmxX-30" value="user guesses number from specification." style="html=1;strokeWidth=2;shape=manualInput;whiteSpace=wrap;rounded=1;size=26;arcSize=11;" parent="WIyWlLk6GJQsqaUBKTNV-1" vertex="1">
          <mxGeometry x="359" y="1160" width="120" height="90" as="geometry" />
        </mxCell>
      </root>
    </mxGraphModel>
  </diagram>
</mxfile>
